<svg xmlns="http://www.w3.org/2000/svg" width="20" height="20" viewBox="0 0 48 48">
  <g>
    <path fill="#4285F4" d="M24 9.5c3.54 0 6.7 1.22 9.19 3.23l6.85-6.85C35.92 2.36 30.28 0 24 0 14.82 0 6.73 5.8 2.69 14.09l7.99 6.2C12.36 13.77 17.73 9.5 24 9.5z"/>
    <path fill="#34A853" d="M46.1 24.55c0-1.64-.15-3.22-.42-4.74H24v9.01h12.42c-.54 2.91-2.17 5.38-4.62 7.04l7.1 5.52c4.16-3.84 6.6-9.5 6.6-16.83z"/>
    <path fill="#FBBC05" d="M10.68 28.29a14.5 14.5 0 0 1 0-8.58l-7.99-6.2A23.94 23.94 0 0 0 0 24c0 3.77.9 7.34 2.69 10.49l7.99-6.2z"/>
    <path fill="#EA4335" d="M24 48c6.28 0 11.56-2.08 15.41-5.66l-7.1-5.52c-2.01 1.35-4.58 2.16-8.31 2.16-6.27 0-11.64-4.27-13.53-10.01l-7.99 6.2C6.73 42.2 14.82 48 24 48z"/>
    <path fill="none" d="M0 0h48v48H0z"/>
  </g>
</svg>
