<?xml version="1.0" encoding="UTF-8"?>
<svg version="1.1" xmlns="http://www.w3.org/2000/svg" width="43" height="43">
<path d="M0 0 C1.63001953 0.16628906 1.63001953 0.16628906 3.29296875 0.3359375 C4.12441406 0.43132813 4.95585937 0.52671875 5.8125 0.625 C6.4725 3.925 7.1325 7.225 7.8125 10.625 C9.05 10.893125 10.2875 11.16125 11.5625 11.4375 C17.54057018 12.9744152 17.54057018 12.9744152 19.8125 15.625 C20.32772407 19.0107582 20.01538345 21.10723689 18.76831055 24.28979492 C16.8125 26.625 16.8125 26.625 13.35083008 27.19262695 C11.92765157 27.19183711 10.50431719 27.16368344 9.08203125 27.11328125 C8.33161057 27.10620651 7.58118988 27.09913177 6.80802917 27.09184265 C4.41266905 27.06386657 2.01965253 27.00113009 -0.375 26.9375 C-1.99931518 26.91242092 -3.62366703 26.88960706 -5.24804688 26.86914062 C-9.22876671 26.81403043 -13.20773615 26.72774233 -17.1875 26.625 C-20.234375 19.96875 -20.234375 19.96875 -19.8125 16.875 C-17.4794165 13.6445767 -14.90833296 12.86527765 -11.1875 11.625 C-10.1975 11.625 -9.2075 11.625 -8.1875 11.625 C-8.5175 8.325 -8.8475 5.025 -9.1875 1.625 C-5.54331659 -0.80445561 -4.25826636 -0.4578781 0 0 Z M15.8125 14.625 C15.8125 15.285 15.8125 15.945 15.8125 16.625 C16.4725 16.295 17.1325 15.965 17.8125 15.625 C17.1525 15.295 16.4925 14.965 15.8125 14.625 Z " fill="#337632" transform="translate(21.1875,7.375)"/>
<path d="M0 0 C0.33 1.32 0.66 2.64 1 4 C2.62808594 4.07347656 2.62808594 4.07347656 4.2890625 4.1484375 C5.73439784 4.22351986 7.17970919 4.29906528 8.625 4.375 C9.69427734 4.42140625 9.69427734 4.42140625 10.78515625 4.46875 C15.17152608 4.71020155 18.8594834 5.39342731 23 7 C23 7.66 23 8.32 23 9 C20.03 9 17.06 9 14 9 C13.67 8.01 13.34 7.02 13 6 C12.34 6 11.68 6 11 6 C11 6.66 11 7.32 11 8 C8.69 8 6.38 8 4 8 C4 8.66 4 9.32 4 10 C8.29 10 12.58 10 17 10 C17 10.33 17 10.66 17 11 C8.42 11 -0.16 11 -9 11 C-9 4 -9 4 -7.875 1.5625 C-5.24871143 -0.6260738 -3.31446363 -0.29461899 0 0 Z " fill="#5F8E3D" transform="translate(14,21)"/>
<path d="M0 0 C1.32 0.66 2.64 1.32 4 2 C4.3247148 6.65424545 3.94690743 9.32032505 1 13 C-1.72387695 13.58349609 -1.72387695 13.58349609 -4.98828125 13.5234375 C-6.16970703 13.51183594 -7.35113281 13.50023437 -8.56835938 13.48828125 C-10.42170898 13.43220703 -10.42170898 13.43220703 -12.3125 13.375 C-13.53646484 13.36082031 -14.76042969 13.34664062 -16.02148438 13.33203125 C-21.46248745 13.243271 -26.64065048 12.99509935 -32 12 C-32 11.67 -32 11.34 -32 11 C-25.565 10.505 -25.565 10.505 -19 10 C-19 9.34 -19 8.68 -19 8 C-16.69 8 -14.38 8 -12 8 C-12 7.34 -12 6.68 -12 6 C-11.34 6 -10.68 6 -10 6 C-9.67 6.66 -9.34 7.32 -9 8 C-6.87423218 8.46651207 -6.87423218 8.46651207 -4.4375 8.625 C-3.61121094 8.69976562 -2.78492187 8.77453125 -1.93359375 8.8515625 C-1.29550781 8.90054687 -0.65742187 8.94953125 0 9 C0 8.34 0 7.68 0 7 C-0.99 7 -1.98 7 -3 7 C-3.66 6.34 -4.32 5.68 -5 5 C-5 3.68 -5 2.36 -5 1 C-4.01 1 -3.02 1 -2 1 C-2 1.99 -2 2.98 -2 4 C-1.01 3.34 -0.02 2.68 1 2 C0.505 1.01 0.505 1.01 0 0 Z " fill="#6F7980" transform="translate(37,21)"/>
<path d="M0 0 C1.08667969 0.11085938 2.17335938 0.22171875 3.29296875 0.3359375 C4.12441406 0.43132813 4.95585937 0.52671875 5.8125 0.625 C6.4725 3.925 7.1325 7.225 7.8125 10.625 C10.4525 11.285 13.0925 11.945 15.8125 12.625 C15.8125 12.955 15.8125 13.285 15.8125 13.625 C12.5125 13.295 9.2125 12.965 5.8125 12.625 C5.4825 10.645 5.1525 8.665 4.8125 6.625 C2.8325 6.625 0.8525 6.625 -1.1875 6.625 C-0.8575 5.635 -0.5275 4.645 -0.1875 3.625 C0.4725 3.625 1.1325 3.625 1.8125 3.625 C2.1425 2.965 2.4725 2.305 2.8125 1.625 C1.4925 1.955 0.1725 2.285 -1.1875 2.625 C-1.52373796 3.9159136 -1.85639249 5.20776097 -2.1875 6.5 C-2.373125 7.21929688 -2.55875 7.93859375 -2.75 8.6796875 C-3.26063965 10.61789317 -3.26063965 10.61789317 -3.1875 12.625 C-4.8375 12.295 -6.4875 11.965 -8.1875 11.625 C-8.5175 8.325 -8.8475 5.025 -9.1875 1.625 C-5.54331659 -0.80445561 -4.25826636 -0.4578781 0 0 Z " fill="#4A646D" transform="translate(21.1875,7.375)"/>
<path d="M0 0 C0 0.99 0 1.98 0 3 C-0.33 2.34 -0.66 1.68 -1 1 C-1.66 1 -2.32 1 -3 1 C-3 1.66 -3 2.32 -3 3 C-3.66 3 -4.32 3 -5 3 C-5.66 3.66 -6.32 4.32 -7 5 C-7.33 4.34 -7.66 3.68 -8 3 C-10.91634129 2.7497843 -10.91634129 2.7497843 -14 3 C-15.93395001 5.90092502 -16.30131941 6.89674737 -16.625 10.1875 C-16.74875 11.445625 -16.8725 12.70375 -17 14 C-15.02 14 -13.04 14 -11 14 C-11 14.33 -11 14.66 -11 15 C-13.31 15 -15.62 15 -18 15 C-21.12 8.88 -21.12 8.88 -20.625 5.25 C-15.74820348 -1.50248749 -7.45598382 -0.33056086 0 0 Z " fill="#3F4B4D" transform="translate(22,19)"/>
<path d="M0 0 C0.99 0 1.98 0 3 0 C3.33 0.99 3.66 1.98 4 3 C4.66 3.33 5.32 3.66 6 4 C6 5.98 6 7.96 6 10 C-0.6 9.67 -7.2 9.34 -14 9 C-14 8.34 -14 7.68 -14 7 C-11.69 7 -9.38 7 -7 7 C-7 6.34 -7 5.68 -7 5 C-6.34 5 -5.68 5 -5 5 C-4.67 5.66 -4.34 6.32 -4 7 C-1.87423218 7.46651207 -1.87423218 7.46651207 0.5625 7.625 C1.38878906 7.69976563 2.21507813 7.77453125 3.06640625 7.8515625 C3.70449219 7.90054687 4.34257813 7.94953125 5 8 C5 7.34 5 6.68 5 6 C4.01 6 3.02 6 2 6 C1.34 5.34 0.68 4.68 0 4 C0 2.68 0 1.36 0 0 Z " fill="#75A44B" transform="translate(32,22)"/>
<path d="M0 0 C2.64 0 5.28 0 8 0 C8.66 3.3 9.32 6.6 10 10 C12.64 10.66 15.28 11.32 18 12 C18 12.33 18 12.66 18 13 C14.7 12.67 11.4 12.34 8 12 C7.67 10.02 7.34 8.04 7 6 C5.02 6 3.04 6 1 6 C1.33 5.01 1.66 4.02 2 3 C2.66 3 3.32 3 4 3 C4.33 2.34 4.66 1.68 5 1 C3.35 1 1.7 1 0 1 C0 0.67 0 0.34 0 0 Z " fill="#5E736D" transform="translate(19,8)"/>
<path d="M0 0 C1.4540625 0.0309375 1.4540625 0.0309375 2.9375 0.0625 C2.9375 2.0625 2.9375 4.0625 2.9375 6.0625 C3.9275 6.3925 4.9175 6.7225 5.9375 7.0625 C5.9375 7.7225 5.9375 8.3825 5.9375 9.0625 C2.3075 9.0625 -1.3225 9.0625 -5.0625 9.0625 C-4.4025 8.7325 -3.7425 8.4025 -3.0625 8.0625 C-3.3409375 6.3609375 -3.3409375 6.3609375 -3.625 4.625 C-3.8415625 2.8615625 -3.8415625 2.8615625 -4.0625 1.0625 C-3.0625 0.0625 -3.0625 0.0625 0 0 Z " fill="#ABB5A2" transform="translate(11.0625,20.9375)"/>
<path d="M0 0 C1.1446875 0.18304687 2.289375 0.36609375 3.46875 0.5546875 C6.5 1.125 6.5 1.125 9.5 2.125 C9.5 2.785 9.5 3.445 9.5 4.125 C6.53 4.125 3.56 4.125 0.5 4.125 C0.17 3.135 -0.16 2.145 -0.5 1.125 C-1.16 1.125 -1.82 1.125 -2.5 1.125 C-2.5 1.785 -2.5 2.445 -2.5 3.125 C-4.81 3.125 -7.12 3.125 -9.5 3.125 C-9.5 2.135 -9.5 1.145 -9.5 0.125 C-5.87246053 -1.08417982 -3.75539961 -0.61744183 0 0 Z " fill="#A1B390" transform="translate(27.5,25.875)"/>
<path d="M0 0 C1.32 0.66 2.64 1.32 4 2 C4.17942163 5.94727588 4.09350689 8.5980513 2 12 C0.02 12 -1.96 12 -4 12 C-4 11.67 -4 11.34 -4 11 C-2.35 11 -0.7 11 1 11 C1 9.02 1 7.04 1 5 C0.34 4.67 -0.32 4.34 -1 4 C-0.34 3.34 0.32 2.68 1 2 C0.67 1.34 0.34 0.68 0 0 Z " fill="#536161" transform="translate(37,21)"/>
<path d="M0 0 C0.66 0 1.32 0 2 0 C2 0.66 2 1.32 2 2 C3.32 2.33 4.64 2.66 6 3 C6 3.99 6 4.98 6 6 C2.37 5.67 -1.26 5.34 -5 5 C-3.68 4.67 -2.36 4.34 -1 4 C-0.67 2.68 -0.34 1.36 0 0 Z " fill="#3F6E37" transform="translate(28,21)"/>
<path d="M0 0 C3.63 0.66 7.26 1.32 11 2 C11.33 3.32 11.66 4.64 12 6 C11.01 6 10.02 6 9 6 C9 5.01 9 4.02 9 3 C7.35 3.33 5.7 3.66 4 4 C4 3.34 4 2.68 4 2 C1.66924071 2.95865509 1.66924071 2.95865509 0 6 C0 4.02 0 2.04 0 0 Z " fill="#204822" transform="translate(26,19)"/>
<path d="M0 0 C0.99 0.33 1.98 0.66 3 1 C2.67 3.97 2.34 6.94 2 10 C1.34 10 0.68 10 0 10 C-0.19412181 8.52168779 -0.38012131 7.04230684 -0.5625 5.5625 C-0.66691406 4.73878906 -0.77132813 3.91507813 -0.87890625 3.06640625 C-0.91886719 2.38449219 -0.95882813 1.70257812 -1 1 C-0.67 0.67 -0.34 0.34 0 0 Z " fill="#379429" transform="translate(24,15)"/>
<path d="M0 0 C0.99 0 1.98 0 3 0 C3.33 0.99 3.66 1.98 4 3 C4.66 3.33 5.32 3.66 6 4 C6 5.98 6 7.96 6 10 C5.67 8.68 5.34 7.36 5 6 C4.01 6 3.02 6 2 6 C1.34 5.34 0.68 4.68 0 4 C0 2.68 0 1.36 0 0 Z " fill="#59973D" transform="translate(32,22)"/>
<path d="M0 0 C0.66 0 1.32 0 2 0 C2.33 2.31 2.66 4.62 3 7 C2.34 7 1.68 7 1 7 C0.67 7.99 0.34 8.98 0 10 C-0.19412181 8.52168779 -0.38012131 7.04230684 -0.5625 5.5625 C-0.66691406 4.73878906 -0.77132813 3.91507813 -0.87890625 3.06640625 C-0.91886719 2.38449219 -0.95882813 1.70257813 -1 1 C-0.67 0.67 -0.34 0.34 0 0 Z " fill="#253959" transform="translate(13,8)"/>
<path d="M0 0 C0 0.66 0 1.32 0 2 C-2.97 2 -5.94 2 -9 2 C-9.33 1.34 -9.66 0.68 -10 0 C-6.42355152 -1.2380014 -3.66305234 -0.74926071 0 0 Z " fill="#AEC49A" transform="translate(37,28)"/>
<path d="M0 0 C1.32 1.32 2.64 2.64 4 4 C3.34 4 2.68 4 2 4 C2 5.32 2 6.64 2 8 C1.01 8 0.02 8 -1 8 C-1.125 2.25 -1.125 2.25 0 0 Z " fill="#769260" transform="translate(6,23)"/>
<path d="M0 0 C-3.44450737 2.29633824 -5.93812283 2.54016485 -10 3 C-10 2.01 -10 1.02 -10 0 C-6.30581799 -1.231394 -3.7943739 -0.64432764 0 0 Z " fill="#808D75" transform="translate(21,25)"/>
<path d="M0 0 C1.98 0.495 1.98 0.495 4 1 C4 2.32 4 3.64 4 5 C2.35 4.67 0.7 4.34 -1 4 C-0.67 2.68 -0.34 1.36 0 0 Z " fill="#A6A6A6" transform="translate(14,15)"/>
<path d="M0 0 C0.66 0.33 1.32 0.66 2 1 C1.67 2.32 1.34 3.64 1 5 C-0.65 5 -2.3 5 -4 5 C-3.34 3.68 -2.68 2.36 -2 1 C-1.34 1.33 -0.68 1.66 0 2 C0 1.34 0 0.68 0 0 Z " fill="#2B6F21" transform="translate(19,20)"/>
</svg>
